<svg enable-background="new 0 0 128 128" height="128" viewBox="0 0 128 128" width="128" xmlns="http://www.w3.org/2000/svg"><path d="m55.9 84.5 2.2-4.2 8.3 4.2h5.7l3.1-6h-19l-3.1 6zm54.7-15.4c0 8.5-6.9 15.5-15.5 15.5h-9.5l.4-.7-10.4-5.3h19.5c5.2 0 9.5-4.3 9.5-9.5s-4.3-9.5-9.5-9.5c-.5 0-1.1.1-1.7.2l-4.6.8 1.2-4.5c.2-.8.3-1.6.3-2.3 0-5-4.1-9.1-9.1-9.1-2.1 0-4.1.7-5.7 2l-5.2 4.2.4-7c0-.1 0-.3 0-.4 0-7.8-6.3-14.1-14.1-14.1s-14.1 6.3-14.1 14.1c0 1.5.2 3 .7 4.5l1.7 5-5.2-1.1c-1-.2-2-.3-2.9-.3-7.5 0-13.6 6.1-13.6 13.6s6.1 13.6 13.6 13.6h5.9l-1.1 2.2-2 3.9h-2.8c-10.8 0-19.6-8.8-19.6-19.6 0-10.7 8.7-19.5 19.4-19.6-.1-.7-.1-1.4-.1-2 0-11.1 9-20.1 20.1-20.1 9.7 0 17.8 6.9 19.7 16.1 1.6-.6 3.3-.8 5-.8 8.3 0 15.1 6.8 15.1 15.1 7.9.3 14.2 6.9 14.2 15.1zm-45.9 18-5.3-2.7-6.2 12.2 5.3 2.7zm-13.7 26.9-5.3-2.7 6.2-12.2 5.3 2.7zm24.7-16.7-5.3-2.7 6.2-12.2 5.3 2.7zm-7.5 14.8-5.3-2.7 6.1-12.2 5.3 2.7zm-18.6-27.3-5.3-2.7 6.2-12.2 5.3 2.7zm-7.5 14.8-5.3-2.7 6.2-12.2 5.3 2.7z"/></svg>