<svg fill="none" height="128" viewBox="0 0 128 128" width="128" xmlns="http://www.w3.org/2000/svg"><g fill="#000"><path d="m115.7 88c0-9.8-7.8-17.8-17.5-18.3 0-.2 0-.4 0-.6 0-9.8-8-17.8-17.8-17.8-2.3 0-4.5.4-6.6 1.3-1.9-11.3-11.8-20-23.6-20-13.2 0-23.9 10.7-23.9 23.9 0 1.1.1 2.1.2 3.2-13.1-.3-23.79999 10.3-23.79999 23.3 0 12.9 10.49999 23.3 23.29999 23.3h71.4c10.1 0 18.3-8.2 18.3-18.3zm-85.9-21.9 5.2 1.1-1.7-5c-.6-1.9-.9-3.8-.9-5.7 0-9.9 8-17.9 17.9-17.9s17.9 8 17.9 17.9v.5l-.4 7.1 5.2-4.1c2.1-1.7 4.7-2.6 7.4-2.6 6.5 0 11.8 5.3 11.8 11.8 0 1-.1 2-.4 3l-1.2 4.6 4.6-.8c.8-.1 1.5-.2 2.2-.2 6.8 0 12.3 5.5 12.3 12.3s-5.5 12.3-12.3 12.3h-71.4c-9.5 0-17.29999-7.8-17.29999-17.3s7.79999-17.4 17.29999-17.4c1.2 0 2.5.2 3.8.4z"/><path d="m112.851 32.3844 6.149-5.3844-8.364.0103c-.316-.0077-.767-.014-1.334-.0097-1.134.0085-2.738.0599-4.656.2275-3.821.3337-8.9767 1.1376-14.1792 3.0459-5.2 1.9074-10.5868 4.9703-14.6816 9.9053-.7923.9548-1.5301 1.9723-2.2051 3.0557.9933 1.7344 1.8012 3.587 2.3926 5.5312 1.455-.32 2.9339-.4658 4.4277-.4658 9.9738.0002 18.3437 7.0815 20.3436 16.4736-.133-1.3044-.206-2.6686-.206-4.0937 0-9.3709 3.125-16.474 6.242-21.2403 1.561-2.3869 3.118-4.1818 4.27-5.3681.575-.5923 1.046-1.0309 1.363-1.3125.158-.1405.278-.2419.353-.3037.037-.0309.063-.0525.077-.0635l.004-.0029.001-.002z"/></g></svg>