<svg fill="none" height="128" viewBox="0 0 128 128" width="128" xmlns="http://www.w3.org/2000/svg"><g fill="#000"><path d="m110.5 27.006c-1.137-.0801-2.711-.0268-4.636 0-3.83.0535-9.0118.5006-14.2507 2.1221-5.2429 1.6228-10.6871 4.4684-14.8213 9.4141-1.1932 1.4274-2.2601 3.0086-3.1748 4.7558.9767 1.7161 1.7713 3.5474 2.3555 5.4678 1.455-.32 2.9339-.4658 4.4277-.4658 7.8677.0001 14.7379 4.4068 18.2705 10.8779.1283-8.5201 3.7551-15.0506 7.4721-19.5371 1.891-2.2831 3.785-4.0092 5.198-5.1582.704-.5728 1.285-.9983 1.679-1.2744.196-.1379.347-.2384.442-.3008.047-.0311.081-.0533.1-.0654.005-.0029.008-.006.011-.0078l.001.0009 7.157-5.4121-8.231-.423z"/><path d="m115.7 88c0-9.8-7.8-17.8-17.5-18.3 0-.2 0-.4 0-.6 0-9.8-8-17.8-17.8-17.8-2.3 0-4.5.4-6.6 1.3-1.9-11.3-11.8-20-23.6-20-13.2 0-23.9 10.7-23.9 23.9 0 1.1.1 2.1.2 3.2-13.1-.3-23.79999 10.3-23.79999 23.3 0 12.9 10.49999 23.3 23.29999 23.3h71.4c10.1 0 18.3-8.2 18.3-18.3zm-85.9-21.9 5.2 1.1-1.7-5c-.6-1.9-.9-3.8-.9-5.7 0-9.9 8-17.9 17.9-17.9s17.9 8 17.9 17.9v.5l-.4 7.1 5.2-4.1c2.1-1.7 4.7-2.6 7.4-2.6 6.5 0 11.8 5.3 11.8 11.8 0 1-.1 2-.4 3l-1.2 4.6 4.6-.8c.8-.1 1.5-.2 2.2-.2 6.8 0 12.3 5.5 12.3 12.3s-5.5 12.3-12.3 12.3h-71.4c-9.5 0-17.29999-7.8-17.29999-17.3s7.79999-17.4 17.29999-17.4c1.2 0 2.5.2 3.8.4z"/></g></svg>