<svg enable-background="new 0 0 128 128" height="128" viewBox="0 0 128 128" width="128" xmlns="http://www.w3.org/2000/svg"><path d="m67.2 36.8c5.8-7.4 14.9-12.2 25-12.2 17.6 0 31.9 14.3 31.9 31.9 0 8.5-3.3 16.2-8.7 21.9-3-5.6-8.5-9.7-15.1-10.6-.7-10.4-9.3-18.6-19.9-18.6-1.7 0-3.4.2-5 .6-1.4-5.1-4.3-9.6-8.2-13zm48.5 51.2c0-9.8-7.8-17.8-17.5-18.3 0-.2 0-.4 0-.6 0-9.8-8-17.8-17.8-17.8-2.3 0-4.5.4-6.6 1.3-1.9-11.3-11.8-20-23.6-20-13.2 0-23.9 10.7-23.9 23.9 0 1.1.1 2.1.2 3.2-13.1-.3-23.8 10.3-23.8 23.3 0 12.9 10.5 23.3 23.3 23.3h71.4c10.1 0 18.3-8.2 18.3-18.3zm-85.9-21.9 5.2 1.1-1.7-5c-.6-1.9-.9-3.8-.9-5.7 0-9.9 8-17.9 17.9-17.9s17.9 8 17.9 17.9v.5l-.4 7.1 5.2-4.1c2.1-1.7 4.7-2.6 7.4-2.6 6.5 0 11.8 5.3 11.8 11.8 0 1-.1 2-.4 3l-1.2 4.6 4.6-.8c.8-.1 1.5-.2 2.2-.2 6.8 0 12.3 5.5 12.3 12.3s-5.5 12.3-12.3 12.3h-71.4c-9.5 0-17.3-7.8-17.3-17.3s7.8-17.4 17.3-17.4c1.2 0 2.5.2 3.8.4z"/></svg>