<svg enable-background="new 0 0 128 128" height="128" viewBox="0 0 128 128" width="128" xmlns="http://www.w3.org/2000/svg"><path d="m97.4 66.3-16.9 3.7-4.6-2.7c.3-1 .5-2.1.5-3.2 0-1.2-.2-2.4-.5-3.5l4.7-2.7 16.8 3.6 1.3-5.9-10.3-2.2 9.5-5.4-3-5.2-9.5 5.4 3.3-10-5.7-1.9-5.4 16.3-4.9 2.8c-1.6-1.5-3.5-2.6-5.7-3.1v-5.9l11.5-12.8-4.5-4-7 7.8v-10.8h-6v11l-7.1-7.8-4.5 4 11.6 12.7v6c-2.1.6-3.9 1.7-5.3 3.2l-5.3-3-5.4-16.4-5.7 1.9 3.3 10-9.5-5.4-3 5.2 9.5 5.4-10.3 2.2 1.3 5.9 16.8-3.6 5.3 3c-.3 1-.4 2.1-.4 3.2 0 1 .1 2 .4 2.9l-5.2 3-16.8-3.6-1.3 5.9 10.3 2.2-9.5 5.4 3 5.2 9.5-5.4-3.3 10 5.7 1.9 5.4-16.3 5.1-2.9c1.5 1.6 3.4 2.8 5.5 3.4v5.7l-11.6 12.6 4.5 4 7-7.8v10.9h6v-11l7.1 7.8 4.5-4-11.7-12.7v-5.4c2.3-.5 4.4-1.7 6-3.3l4.7 2.7 5.4 16.2 5.7-1.9-3.3-10 9.5 5.4 3-5.2-9.5-5.4 10.3-2.2zm-39.2-2.2c0-3.4 2.7-6.1 6.1-6.1s6.1 2.7 6.1 6.1-2.7 6.1-6.1 6.1-6.1-2.8-6.1-6.1z"/></svg>