<svg enable-background="new 0 0 128 128" height="128" viewBox="0 0 128 128" width="128" xmlns="http://www.w3.org/2000/svg"><path d="m64 103.1c-21.6 0-39.1-17.6-39.1-39.1s17.5-39.1 39.1-39.1 39.1 17.6 39.1 39.1-17.5 39.1-39.1 39.1zm0-72.2c-18.3 0-33.1 14.9-33.1 33.1s14.8 33.1 33.1 33.1 33.1-14.8 33.1-33.1-14.8-33.1-33.1-33.1zm3-25.5h-6v15.1h6zm0 102.1h-6v15.1h6zm-16.9-84.8-3.5-8.3-5.5 2.3 3.5 8.3zm36.8 88.7-3.4-8.3-5.5 2.3 3.4 8.3zm0-94.8-5.5-2.3-3.5 8.3 5.5 2.3zm-36.8 88.7-5.5-2.3-3.4 8.3 5.5 2.3zm63.6-58.6-2.3-5.5-8.3 3.5 2.3 5.5zm-88.8 36.7-2.3-5.5-8.3 3.4 2.3 5.5zm88.8-2.1-8.3-3.5-2.3 5.5 8.3 3.5zm-88.8-36.7-8.3-3.4-2.3 5.5 8.3 3.4zm-4.4 16.4h-15.1v6h15.1zm102.1 0h-15.1v6h15.1zm-87.2 35.9-4.2-4.2-10.7 10.7 4.2 4.2zm72.1-72.2-4.2-4.2-10.7 10.6 4.2 4.2zm0 78.6-10.6-10.7-4.2 4.2 10.7 10.7zm-72.1-72.2-10.7-10.6-4.2 4.2 10.7 10.7z"/></svg>