<svg enable-background="new 0 0 128 128" height="128" viewBox="0 0 128 128" width="128" xmlns="http://www.w3.org/2000/svg"><path d="m50.9 84.5 3.1-6h19l-3.1 6h-5.7l-8.3-4.2-2.2 4.2zm43.2-30.9c0-8.3-6.8-15.1-15.1-15.1-1.7 0-3.4.3-5 .8-1.8-9.2-10-16.1-19.7-16.1-11.1 0-20.1 9-20.1 20.1 0 .7 0 1.4.1 2-10.6.2-19.2 9-19.2 19.7 0 10.8 8.8 19.6 19.6 19.6h2.8l2-3.9 1.1-2.2h-5.9c-7.5 0-13.6-6.1-13.6-13.6s6.1-13.6 13.6-13.6c1 0 1.9.1 2.9.3l5.2 1.1-1.7-5c-.5-1.5-.7-3-.7-4.5 0-7.8 6.3-14.1 14.1-14.1s14.1 6.3 14.1 14.1v.4l-.4 7 5.2-4.2c1.6-1.3 3.6-2 5.7-2 5 0 9.1 4.1 9.1 9.1 0 .8-.1 1.5-.3 2.3l-1.2 4.5 4.6-.8c.6-.1 1.1-.2 1.7-.2 5.2 0 9.5 4.3 9.5 9.5s-4.3 9.5-9.5 9.5h-19.7l10.4 5.3-.4.7h9.5c8.5 0 15.5-6.9 15.5-15.5.1-7.9-6.2-14.5-14.2-15.2zm-37.8 45.6-5.3-2.7 6.2-12.2 5.3 2.7zm23.4-14.1-5.3-2.7-6.2 12.2 5.3 2.7zm-26.1-12.4-5.3-2.7-6.3 12.1 5.3 2.7zm-7.6 14.7-5.3-2.7-6.2 12.2 5.3 2.7zm-24.2 18.9-5.4 8.7h10.9zm28.3 0-5.4 8.7h10.9zm28.2 0-5.4 8.7h10.9zm28.3 0-5.4 8.7h10.8z"/></svg>