<svg enable-background="new 0 0 128 128" height="128" viewBox="0 0 128 128" width="128" xmlns="http://www.w3.org/2000/svg"><path d="m53 85.3-3.4.7-.9-.5c.1-.2.1-.4.1-.7s0-.5-.1-.7l1-.5 3.4.7.3-1.2-2.1-.5 1.9-1.1-.6-1.1-1.9 1.1.7-2-1.4-.3-1.1 3.3-1 .6c-.3-.3-.7-.5-1.2-.6v-1.2l2.3-2.6-.9-.8-1.4 1.6v-2.2h-1.2v2.2l-1.4-1.6-.9.8 2.3 2.6v1.2c-.4.1-.8.3-1.1.6l-1.1-.6-1.1-3.3-1.2.4.7 2-1.9-1.1-.6 1.1 1.9 1.1-2.1.5.3 1.2 3.4-.7 1.1.6c-.1.2-.1.4-.1.7 0 .2 0 .4.1.6l-1.1.6-3.4-.7-.3 1.2 2.1.5-1.9 1.1.6 1.1 1.9-1.1-.7 2 1.2.4 1.1-3.3 1-.6c.3.3.7.6 1.1.7v1.1l-2.2 2.4.9.8 1.4-1.6v2.2h1.2v-2.2l1.4 1.6.9-.8-2.3-2.6v-1.1c.5-.1.9-.3 1.2-.7l.9.5 1.1 3.3 1.2-.4-.7-2 1.9 1.1.6-1.1-1.8-1 2.1-.5zm-8-.4c0-.7.6-1.2 1.2-1.2s1.2.6 1.2 1.2c0 .7-.6 1.2-1.2 1.2s-1.2-.5-1.2-1.2zm37.5 3.9-3.4.7-1-.5c.1-.2.1-.4.1-.7s0-.5-.1-.7l1-.5 3.4.7.3-1.2-2.1-.5 1.9-1.1-.6-1-1.9 1.1.7-2-1.2-.4-1.1 3.3-1 .6c-.3-.3-.7-.5-1.2-.6v-1.2l2.3-2.6-.9-.8-1.4 1.6v-2.2h-1.2v2.2l-1.4-1.6-.9.8 2.3 2.6v1.2c-.4.1-.8.3-1.1.6l-1-.6-1.1-3.3-1.2.4.7 2-1.9-1.1-.6 1.1 1.9 1.1-2.1.5.3 1.2 3.4-.7 1.1.6c-.1.2-.1.4-.1.7 0 .2 0 .4.1.6l-1.1.6-3.4-.7-.3 1 2.1.5-1.9 1.1.6 1.1 1.9-1.1-.7 2 1.2.4 1.1-3.3 1-.6c.3.3.7.6 1.1.7v1.1l-2.3 2.6.9.8 1.4-1.6v2.2h1.2v-2.2l1.4 1.6.9-.8-2.3-2.6v-1.1c.5-.1.9-.3 1.2-.7l.9.5 1.1 3.3 1.2-.4-.7-2 1.9 1.1.6-1.1-1.9-1.1 2.1-.5zm-8-.5c0-.7.6-1.2 1.2-1.2s1.2.6 1.2 1.2c0 .7-.6 1.2-1.2 1.2s-1.2-.5-1.2-1.2zm-28.9 18.4-3.4.7-.9-.5c.1-.2.1-.4.1-.7s0-.5-.1-.7l1-.5 3.4.7.3-1.2-2.1-.5 1.9-1.1-.6-1.1-1.9 1.1.7-2-1.2-.4-1.1 3.3-1 .6c-.3-.3-.7-.5-1.2-.6v-1.2l2.3-2.6-.9-.8-1.4 1.6v-2.2h-1.2v2.2l-1.4-1.6-.9.8 2.3 2.6v1.2c-.4.1-.8.3-1.1.6l-1.1-.6-1.1-3.3-1.2.4.7 2-1.9-1.1-.6 1.1 1.9 1.1-2.1.5.3 1.2 3.4-.7 1.1.6c-.1.2-.1.4-.1.7 0 .2 0 .4.1.6l-1.1.6-3.4-.7-.3 1.2 2.1.5-1.9 1.1.6 1.1 1.9-1.1-.7 2 1.2.4 1.1-3.3 1-.6c.3.3.7.6 1.1.7v1.1l-2.3 2.6.9.8 1.4-1.6v2.2h1.2v-2.2l1.4 1.6.9-.8-2.3-2.6v-1.1c.5-.1.9-.3 1.2-.7l.9.5 1.1 3.3 1.2-.4-.7-2 1.9 1.1.6-1.1-1.9-1.1 2.1-.5zm-8-.5c0-.7.6-1.2 1.2-1.2s1.2.6 1.2 1.2c0 .7-.6 1.2-1.2 1.2s-1.2-.5-1.2-1.2zm37.5 3.9-3.4.7-.9-.5c.1-.2.1-.4.1-.7s0-.5-.1-.7l1-.5 3.4.7.3-1.2-2.1-.5 1.9-1.1-.6-1.1-1.9 1.1.7-2-1.2-.4-1.1 3.3-1 .6c-.3-.3-.7-.5-1.2-.6v-1.2l2.3-2.6-.9-.8-1.4 1.6v-2.2h-1.2v2.2l-1.4-1.6-.9.8 2.3 2.6v1.2c-.4.1-.8.3-1.1.6l-1.1-.6-1.1-3.3-1.2.4.7 2-1.9-1.1-.6 1.1 1.9 1.1-2.1.5.3 1.2 3.4-.7 1 .6c-.1.2-.1.4-.1.7 0 .2 0 .4.1.6l-1.1.6-3.4-.7-.3 1.2 2.1.5-1.9 1.1.6 1.1 1.9-1.1-.7 2 1.2.4 1.1-3.3 1-.6c.3.3.7.6 1.1.7v1.1l-2.3 2.6.9.8 1.4-1.6v2.2h1.2v-2.3l1.4 1.6.9-.8-2.3-2.6v-1.1c.5-.1.9-.3 1.2-.7l.9.5 1.1 3.3 1.2-.4-.7-2 1.9 1.1.6-1.1-1.9-1.1 2.1-.5zm-7.9-.4c0-.7.6-1.2 1.2-1.2.7 0 1.2.6 1.2 1.2 0 .7-.6 1.2-1.2 1.2-.7 0-1.2-.5-1.2-1.2zm37.4-40.6c0 8.5-6.9 15.5-15.5 15.5h-4.8c-1.4-3.3-4.7-5.5-8.5-5.5s-7 2.3-8.5 5.5h-11.7c-.1-2.3-1.1-4.4-2.6-6h36c5.2 0 9.5-4.3 9.5-9.5s-4.3-9.5-9.5-9.5c-.5 0-1.1.1-1.7.2l-4.6.8 1.3-4.6c.2-.8.3-1.6.3-2.3 0-5-4.1-9.1-9.1-9.1-2.1 0-4.1.7-5.7 2l-5.2 4.2.4-7c0-.1 0-.3 0-.4 0-7.8-6.3-14.1-14.1-14.1s-14.1 6.3-14.1 14.1c0 1.5.2 3 .7 4.5l1.7 5-5.2-1.1c-1-.2-2-.3-2.9-.3-7.5 0-13.6 6.1-13.6 13.6s6.1 13.6 13.6 13.6h8.8c-1.5 1.6-2.5 3.7-2.6 6h-6.2c-10.8-.2-19.6-8.9-19.6-19.7 0-10.7 8.7-19.5 19.4-19.6-.1-.7-.1-1.4-.1-2 0-11.1 9-20.1 20.1-20.1 9.7 0 17.8 6.9 19.7 16.1 1.6-.6 3.3-.8 5-.8 8.3 0 15.1 6.8 15.1 15.1 7.9.6 14.2 7.2 14.2 15.4zm10.7-15.9c0 5.4-4.2 9.9-9.5 10.4-2-6-7.1-10.7-13.5-11.9-1-8.6-8.3-15.3-17.1-15.3-1.2 0-2.3.1-3.4.3-1.8-5.7-5.9-10.4-11.1-13 2.6-3.8 6.9-6.3 11.8-6.3 7.9 0 14.3 6.4 14.3 14.3v.7c1.7-1.4 4-2.3 6.4-2.3 5.6 0 10.2 4.5 10.2 10.2 0 .9-.1 1.8-.4 2.6.6-.1 1.2-.2 1.8-.2 5.8.1 10.5 4.7 10.5 10.5z"/></svg>