<svg enable-background="new 0 0 128 128" height="128" viewBox="0 0 128 128" width="128" xmlns="http://www.w3.org/2000/svg"><path d="m114.2 53.2c0 5.4-4.2 9.9-9.5 10.4-2-6-7.1-10.7-13.5-11.9-1-8.6-8.3-15.3-17.1-15.3-1.2 0-2.3.1-3.4.3-1.8-5.8-5.9-10.4-11.1-13.1 2.6-3.8 6.9-6.3 11.8-6.3 7.9 0 14.3 6.4 14.3 14.3v.7c1.7-1.4 4-2.3 6.4-2.3 5.6 0 10.2 4.5 10.2 10.2 0 .9-.1 1.8-.4 2.6.6-.1 1.2-.2 1.8-.2 5.8.1 10.5 4.8 10.5 10.6zm-71.9 18-12.5 23.4h9l-8.5 19 25.1-27.5h-10.8l9.7-14.9zm46.9-17.6c0-8.3-6.8-15.1-15.1-15.1-1.7 0-3.4.3-4.9.8-1.8-9.2-10-16.1-19.7-16.1-11.1 0-20.1 9-20.1 20.1 0 .7 0 1.4.1 2-10.7.1-19.3 8.8-19.3 19.6s8.8 19.6 19.6 19.6h2.1l3.2-6h-5.3c-7.5 0-13.6-6.1-13.6-13.6s6.1-13.6 13.6-13.6c1 0 1.9.1 2.9.3l5.2 1.1-1.7-5c-.5-1.5-.7-3-.7-4.5 0-7.8 6.3-14.1 14.1-14.1s14.1 6.3 14.1 14.1v.4l-.4 7 5.2-4.2c1.6-1.3 3.6-2 5.7-2 5 0 9.1 4.1 9.1 9.1 0 .8-.1 1.5-.3 2.3l-1.2 4.5 4.6-.8c.6-.1 1.1-.2 1.7-.2 5.2 0 9.5 4.2 9.5 9.5s-4.2 9.5-9.5 9.5h-34.9l-3 4.7h12.1l-1.3 1.5h27c8.5 0 15.5-6.9 15.5-15.5-.1-8.1-6.3-14.8-14.3-15.4z"/></svg>